<mxfile host="Electron" modified="2023-12-24T12:02:30.091Z" agent="Mozilla/5.0 (Windows NT 10.0; Win64; x64) AppleWebKit/537.36 (KHTML, like Gecko) draw.io/22.1.11 Chrome/114.0.5735.289 Electron/25.9.8 Safari/537.36" etag="oQO_8mmpXzHg9_93TI9M" version="22.1.11" type="device">
  <diagram name="Страница — 1" id="eBYoO9lafieUX8PKDWNE">
    <mxGraphModel dx="2058" dy="2349" grid="1" gridSize="1" guides="1" tooltips="1" connect="1" arrows="1" fold="1" page="1" pageScale="1" pageWidth="827" pageHeight="1169" math="0" shadow="0">
      <root>
        <mxCell id="0" />
        <mxCell id="1" parent="0" />
        <mxCell id="-G9Bp_dfv1pCXyJ47o4s-3" value="" style="edgeStyle=orthogonalEdgeStyle;rounded=0;orthogonalLoop=1;jettySize=auto;html=1;" parent="1" source="-G9Bp_dfv1pCXyJ47o4s-1" target="-G9Bp_dfv1pCXyJ47o4s-2" edge="1">
          <mxGeometry relative="1" as="geometry" />
        </mxCell>
        <mxCell id="-G9Bp_dfv1pCXyJ47o4s-1" value="Начало(KeyFill)" style="ellipse;whiteSpace=wrap;html=1;" parent="1" vertex="1">
          <mxGeometry x="354" y="-1169" width="116" height="49" as="geometry" />
        </mxCell>
        <mxCell id="-G9Bp_dfv1pCXyJ47o4s-5" value="" style="edgeStyle=orthogonalEdgeStyle;rounded=0;orthogonalLoop=1;jettySize=auto;html=1;" parent="1" source="-G9Bp_dfv1pCXyJ47o4s-2" target="-G9Bp_dfv1pCXyJ47o4s-4" edge="1">
          <mxGeometry relative="1" as="geometry" />
        </mxCell>
        <mxCell id="-G9Bp_dfv1pCXyJ47o4s-2" value="i = 0" style="whiteSpace=wrap;html=1;" parent="1" vertex="1">
          <mxGeometry x="388.5" y="-1090" width="47" height="25.5" as="geometry" />
        </mxCell>
        <mxCell id="-G9Bp_dfv1pCXyJ47o4s-7" style="edgeStyle=orthogonalEdgeStyle;rounded=0;orthogonalLoop=1;jettySize=auto;html=1;exitX=0.5;exitY=1;exitDx=0;exitDy=0;entryX=0.5;entryY=0;entryDx=0;entryDy=0;" parent="1" source="-G9Bp_dfv1pCXyJ47o4s-4" target="-G9Bp_dfv1pCXyJ47o4s-6" edge="1">
          <mxGeometry relative="1" as="geometry" />
        </mxCell>
        <mxCell id="-G9Bp_dfv1pCXyJ47o4s-4" value="key(&quot;key.txt&quot;)" style="whiteSpace=wrap;html=1;" parent="1" vertex="1">
          <mxGeometry x="373" y="-1040" width="78" height="31.75" as="geometry" />
        </mxCell>
        <mxCell id="-G9Bp_dfv1pCXyJ47o4s-11" style="edgeStyle=orthogonalEdgeStyle;rounded=0;orthogonalLoop=1;jettySize=auto;html=1;exitX=1;exitY=0.5;exitDx=0;exitDy=0;entryX=0.5;entryY=0;entryDx=0;entryDy=0;" parent="1" source="-G9Bp_dfv1pCXyJ47o4s-6" target="-G9Bp_dfv1pCXyJ47o4s-39" edge="1">
          <mxGeometry relative="1" as="geometry">
            <mxPoint x="520" y="-965.3333333333333" as="targetPoint" />
            <Array as="points">
              <mxPoint x="810" y="-965" />
              <mxPoint x="810" y="-210" />
              <mxPoint x="426" y="-210" />
            </Array>
          </mxGeometry>
        </mxCell>
        <mxCell id="-G9Bp_dfv1pCXyJ47o4s-13" value="" style="edgeStyle=orthogonalEdgeStyle;rounded=0;orthogonalLoop=1;jettySize=auto;html=1;exitX=0;exitY=0.5;exitDx=0;exitDy=0;" parent="1" source="-G9Bp_dfv1pCXyJ47o4s-6" target="-G9Bp_dfv1pCXyJ47o4s-12" edge="1">
          <mxGeometry relative="1" as="geometry">
            <Array as="points">
              <mxPoint x="353" y="-965" />
              <mxPoint x="353" y="-940" />
              <mxPoint x="414" y="-940" />
            </Array>
          </mxGeometry>
        </mxCell>
        <mxCell id="-G9Bp_dfv1pCXyJ47o4s-6" value="!key" style="rhombus;whiteSpace=wrap;html=1;" parent="1" vertex="1">
          <mxGeometry x="373" y="-980" width="80" height="30" as="geometry" />
        </mxCell>
        <mxCell id="-G9Bp_dfv1pCXyJ47o4s-15" value="" style="edgeStyle=orthogonalEdgeStyle;rounded=0;orthogonalLoop=1;jettySize=auto;html=1;" parent="1" source="-G9Bp_dfv1pCXyJ47o4s-12" target="-G9Bp_dfv1pCXyJ47o4s-14" edge="1">
          <mxGeometry relative="1" as="geometry" />
        </mxCell>
        <mxCell id="-G9Bp_dfv1pCXyJ47o4s-18" value="" style="edgeStyle=orthogonalEdgeStyle;rounded=0;orthogonalLoop=1;jettySize=auto;html=1;entryX=0.5;entryY=0;entryDx=0;entryDy=0;" parent="1" source="-G9Bp_dfv1pCXyJ47o4s-12" target="-G9Bp_dfv1pCXyJ47o4s-17" edge="1">
          <mxGeometry relative="1" as="geometry">
            <Array as="points">
              <mxPoint x="540" y="-907" />
              <mxPoint x="540" y="-820" />
              <mxPoint x="414" y="-820" />
            </Array>
          </mxGeometry>
        </mxCell>
        <mxCell id="-G9Bp_dfv1pCXyJ47o4s-12" value="key &amp;gt;&amp;gt; s; !key.eof(); key &amp;gt;&amp;gt; s" style="shape=hexagon;perimeter=hexagonPerimeter2;whiteSpace=wrap;html=1;fixedSize=1;" parent="1" vertex="1">
          <mxGeometry x="325" y="-920" width="177" height="25" as="geometry" />
        </mxCell>
        <mxCell id="-G9Bp_dfv1pCXyJ47o4s-16" style="edgeStyle=orthogonalEdgeStyle;rounded=0;orthogonalLoop=1;jettySize=auto;html=1;exitX=0.5;exitY=1;exitDx=0;exitDy=0;entryX=0;entryY=0.5;entryDx=0;entryDy=0;" parent="1" source="-G9Bp_dfv1pCXyJ47o4s-14" target="-G9Bp_dfv1pCXyJ47o4s-12" edge="1">
          <mxGeometry relative="1" as="geometry">
            <Array as="points">
              <mxPoint x="413" y="-830" />
              <mxPoint x="310" y="-830" />
              <mxPoint x="310" y="-907" />
            </Array>
          </mxGeometry>
        </mxCell>
        <mxCell id="-G9Bp_dfv1pCXyJ47o4s-14" value="KeyLen++" style="whiteSpace=wrap;html=1;" parent="1" vertex="1">
          <mxGeometry x="375" y="-870" width="76.5" height="22.5" as="geometry" />
        </mxCell>
        <mxCell id="-G9Bp_dfv1pCXyJ47o4s-21" value="" style="edgeStyle=orthogonalEdgeStyle;rounded=0;orthogonalLoop=1;jettySize=auto;html=1;" parent="1" source="-G9Bp_dfv1pCXyJ47o4s-17" target="-G9Bp_dfv1pCXyJ47o4s-20" edge="1">
          <mxGeometry relative="1" as="geometry" />
        </mxCell>
        <mxCell id="-G9Bp_dfv1pCXyJ47o4s-17" value="&lt;div&gt;ke = new int[KeyLen]&lt;/div&gt;&lt;div&gt;key.clear()&lt;/div&gt;&lt;div&gt;key.seekg(0)&lt;/div&gt;&lt;div&gt;temp_key=0&lt;/div&gt;" style="whiteSpace=wrap;html=1;" parent="1" vertex="1">
          <mxGeometry x="326" y="-810" width="176" height="60" as="geometry" />
        </mxCell>
        <mxCell id="-G9Bp_dfv1pCXyJ47o4s-23" value="" style="edgeStyle=orthogonalEdgeStyle;rounded=0;orthogonalLoop=1;jettySize=auto;html=1;" parent="1" source="-G9Bp_dfv1pCXyJ47o4s-20" target="-G9Bp_dfv1pCXyJ47o4s-22" edge="1">
          <mxGeometry relative="1" as="geometry" />
        </mxCell>
        <mxCell id="-G9Bp_dfv1pCXyJ47o4s-37" style="edgeStyle=orthogonalEdgeStyle;rounded=0;orthogonalLoop=1;jettySize=auto;html=1;exitX=1;exitY=0.5;exitDx=0;exitDy=0;" parent="1" source="-G9Bp_dfv1pCXyJ47o4s-20" edge="1">
          <mxGeometry relative="1" as="geometry">
            <mxPoint x="430" y="-260" as="targetPoint" />
            <Array as="points">
              <mxPoint x="800" y="-705" />
              <mxPoint x="800" y="-300" />
              <mxPoint x="430" y="-300" />
            </Array>
          </mxGeometry>
        </mxCell>
        <mxCell id="-G9Bp_dfv1pCXyJ47o4s-20" value="key.get(ch)" style="shape=hexagon;perimeter=hexagonPerimeter2;whiteSpace=wrap;html=1;fixedSize=1;" parent="1" vertex="1">
          <mxGeometry x="366" y="-720" width="96" height="30" as="geometry" />
        </mxCell>
        <mxCell id="-G9Bp_dfv1pCXyJ47o4s-25" value="" style="edgeStyle=orthogonalEdgeStyle;rounded=0;orthogonalLoop=1;jettySize=auto;html=1;" parent="1" source="-G9Bp_dfv1pCXyJ47o4s-22" target="-G9Bp_dfv1pCXyJ47o4s-24" edge="1">
          <mxGeometry relative="1" as="geometry" />
        </mxCell>
        <mxCell id="-G9Bp_dfv1pCXyJ47o4s-22" value="unsigned char t = static_cast&amp;lt;unsigned char&amp;gt;(ch);" style="whiteSpace=wrap;html=1;" parent="1" vertex="1">
          <mxGeometry x="271" y="-670" width="286" height="25" as="geometry" />
        </mxCell>
        <mxCell id="-G9Bp_dfv1pCXyJ47o4s-27" value="" style="edgeStyle=orthogonalEdgeStyle;rounded=0;orthogonalLoop=1;jettySize=auto;html=1;exitX=1;exitY=0.5;exitDx=0;exitDy=0;" parent="1" source="-G9Bp_dfv1pCXyJ47o4s-24" target="-G9Bp_dfv1pCXyJ47o4s-26" edge="1">
          <mxGeometry relative="1" as="geometry" />
        </mxCell>
        <mxCell id="-G9Bp_dfv1pCXyJ47o4s-29" value="" style="edgeStyle=orthogonalEdgeStyle;rounded=0;orthogonalLoop=1;jettySize=auto;html=1;exitX=0;exitY=0.5;exitDx=0;exitDy=0;" parent="1" source="-G9Bp_dfv1pCXyJ47o4s-24" target="-G9Bp_dfv1pCXyJ47o4s-28" edge="1">
          <mxGeometry relative="1" as="geometry" />
        </mxCell>
        <mxCell id="-G9Bp_dfv1pCXyJ47o4s-24" value="(static_cast&amp;lt;int&amp;gt;(t) == 32) || (static_cast&amp;lt;int&amp;gt;(t) == 10) || (static_cast&amp;lt;int&amp;gt;(t) == 9)" style="rhombus;whiteSpace=wrap;html=1;" parent="1" vertex="1">
          <mxGeometry x="162" y="-619" width="504" height="70" as="geometry" />
        </mxCell>
        <mxCell id="-G9Bp_dfv1pCXyJ47o4s-26" value="temp_key += static_cast&amp;lt;int&amp;gt;(t)" style="whiteSpace=wrap;html=1;" parent="1" vertex="1">
          <mxGeometry x="600" y="-480" width="180" height="30" as="geometry" />
        </mxCell>
        <mxCell id="-G9Bp_dfv1pCXyJ47o4s-34" style="edgeStyle=orthogonalEdgeStyle;rounded=0;orthogonalLoop=1;jettySize=auto;html=1;exitX=0.5;exitY=1;exitDx=0;exitDy=0;entryX=0;entryY=0.5;entryDx=0;entryDy=0;" parent="1" target="-G9Bp_dfv1pCXyJ47o4s-20" edge="1">
          <mxGeometry relative="1" as="geometry">
            <mxPoint x="40" y="-840" as="targetPoint" />
            <mxPoint x="140" y="-450" as="sourcePoint" />
            <Array as="points">
              <mxPoint x="140" y="-390" />
              <mxPoint x="430" y="-390" />
              <mxPoint x="430" y="-310" />
              <mxPoint x="30" y="-310" />
              <mxPoint x="30" y="-705" />
            </Array>
          </mxGeometry>
        </mxCell>
        <mxCell id="-G9Bp_dfv1pCXyJ47o4s-28" value="&lt;div&gt;ke[i] = temp_key&lt;/div&gt;&lt;div&gt;i++&lt;/div&gt;&lt;div&gt;temp_key = 0&lt;/div&gt;&lt;div&gt;continue&lt;/div&gt;" style="whiteSpace=wrap;html=1;" parent="1" vertex="1">
          <mxGeometry x="80" y="-510" width="120" height="60" as="geometry" />
        </mxCell>
        <mxCell id="-G9Bp_dfv1pCXyJ47o4s-30" value="Да" style="text;html=1;strokeColor=none;fillColor=none;align=center;verticalAlign=middle;whiteSpace=wrap;rounded=0;" parent="1" vertex="1">
          <mxGeometry x="120" y="-614" width="60" height="30" as="geometry" />
        </mxCell>
        <mxCell id="-G9Bp_dfv1pCXyJ47o4s-31" value="Да" style="text;html=1;strokeColor=none;fillColor=none;align=center;verticalAlign=middle;whiteSpace=wrap;rounded=0;" parent="1" vertex="1">
          <mxGeometry x="451" y="-990" width="60" height="30" as="geometry" />
        </mxCell>
        <mxCell id="-G9Bp_dfv1pCXyJ47o4s-32" value="Нет" style="text;html=1;strokeColor=none;fillColor=none;align=center;verticalAlign=middle;whiteSpace=wrap;rounded=0;" parent="1" vertex="1">
          <mxGeometry x="640" y="-614" width="60" height="30" as="geometry" />
        </mxCell>
        <mxCell id="-G9Bp_dfv1pCXyJ47o4s-33" value="Нет" style="text;html=1;strokeColor=none;fillColor=none;align=center;verticalAlign=middle;whiteSpace=wrap;rounded=0;" parent="1" vertex="1">
          <mxGeometry x="330" y="-990" width="60" height="30" as="geometry" />
        </mxCell>
        <mxCell id="-G9Bp_dfv1pCXyJ47o4s-36" value="" style="endArrow=none;html=1;rounded=0;entryX=0.5;entryY=1;entryDx=0;entryDy=0;" parent="1" target="-G9Bp_dfv1pCXyJ47o4s-26" edge="1">
          <mxGeometry width="50" height="50" relative="1" as="geometry">
            <mxPoint x="430" y="-390" as="sourcePoint" />
            <mxPoint x="420" y="-660" as="targetPoint" />
            <Array as="points">
              <mxPoint x="690" y="-390" />
            </Array>
          </mxGeometry>
        </mxCell>
        <mxCell id="-G9Bp_dfv1pCXyJ47o4s-40" style="edgeStyle=orthogonalEdgeStyle;rounded=0;orthogonalLoop=1;jettySize=auto;html=1;exitX=0.5;exitY=1;exitDx=0;exitDy=0;entryX=0.5;entryY=0;entryDx=0;entryDy=0;" parent="1" source="-G9Bp_dfv1pCXyJ47o4s-38" target="-G9Bp_dfv1pCXyJ47o4s-39" edge="1">
          <mxGeometry relative="1" as="geometry" />
        </mxCell>
        <mxCell id="-G9Bp_dfv1pCXyJ47o4s-38" value="&lt;div&gt;ke[i] = temp_key;&lt;/div&gt;&lt;div&gt;key.close();&lt;/div&gt;" style="rounded=0;whiteSpace=wrap;html=1;" parent="1" vertex="1">
          <mxGeometry x="366" y="-260" width="120" height="40" as="geometry" />
        </mxCell>
        <mxCell id="-G9Bp_dfv1pCXyJ47o4s-39" value="Конец" style="ellipse;whiteSpace=wrap;html=1;" parent="1" vertex="1">
          <mxGeometry x="366" y="-180" width="120" height="50" as="geometry" />
        </mxCell>
        <mxCell id="-G9Bp_dfv1pCXyJ47o4s-43" value="" style="edgeStyle=orthogonalEdgeStyle;rounded=0;orthogonalLoop=1;jettySize=auto;html=1;" parent="1" source="-G9Bp_dfv1pCXyJ47o4s-41" target="-G9Bp_dfv1pCXyJ47o4s-42" edge="1">
          <mxGeometry relative="1" as="geometry" />
        </mxCell>
        <mxCell id="-G9Bp_dfv1pCXyJ47o4s-41" value="Начало(Encoding)" style="ellipse;whiteSpace=wrap;html=1;" parent="1" vertex="1">
          <mxGeometry x="372" y="30" width="120" height="50" as="geometry" />
        </mxCell>
        <mxCell id="-G9Bp_dfv1pCXyJ47o4s-45" value="" style="edgeStyle=orthogonalEdgeStyle;rounded=0;orthogonalLoop=1;jettySize=auto;html=1;" parent="1" source="-G9Bp_dfv1pCXyJ47o4s-42" target="-G9Bp_dfv1pCXyJ47o4s-44" edge="1">
          <mxGeometry relative="1" as="geometry" />
        </mxCell>
        <mxCell id="-G9Bp_dfv1pCXyJ47o4s-42" value="y=0&lt;br&gt;source(&quot;source.txt&quot;)&lt;br&gt;encoded(&quot;encoded.txt&quot;)" style="whiteSpace=wrap;html=1;" parent="1" vertex="1">
          <mxGeometry x="368" y="110" width="128" height="50" as="geometry" />
        </mxCell>
        <mxCell id="-G9Bp_dfv1pCXyJ47o4s-46" style="edgeStyle=orthogonalEdgeStyle;rounded=0;orthogonalLoop=1;jettySize=auto;html=1;exitX=1;exitY=0.5;exitDx=0;exitDy=0;entryX=0.5;entryY=0;entryDx=0;entryDy=0;" parent="1" source="-G9Bp_dfv1pCXyJ47o4s-44" target="-G9Bp_dfv1pCXyJ47o4s-62" edge="1">
          <mxGeometry relative="1" as="geometry">
            <mxPoint x="510" y="810" as="targetPoint" />
            <Array as="points">
              <mxPoint x="770" y="203" />
              <mxPoint x="770" y="670" />
              <mxPoint x="432" y="670" />
            </Array>
          </mxGeometry>
        </mxCell>
        <mxCell id="-G9Bp_dfv1pCXyJ47o4s-48" value="" style="edgeStyle=orthogonalEdgeStyle;rounded=0;orthogonalLoop=1;jettySize=auto;html=1;exitX=0;exitY=0.5;exitDx=0;exitDy=0;entryX=0.5;entryY=0;entryDx=0;entryDy=0;" parent="1" source="-G9Bp_dfv1pCXyJ47o4s-44" target="-G9Bp_dfv1pCXyJ47o4s-47" edge="1">
          <mxGeometry relative="1" as="geometry">
            <Array as="points">
              <mxPoint x="338" y="203" />
              <mxPoint x="338" y="230" />
              <mxPoint x="432" y="230" />
            </Array>
          </mxGeometry>
        </mxCell>
        <mxCell id="-G9Bp_dfv1pCXyJ47o4s-44" value="!source|| !encoded" style="rhombus;whiteSpace=wrap;html=1;" parent="1" vertex="1">
          <mxGeometry x="358" y="180" width="148" height="45" as="geometry" />
        </mxCell>
        <mxCell id="-G9Bp_dfv1pCXyJ47o4s-50" value="" style="edgeStyle=orthogonalEdgeStyle;rounded=0;orthogonalLoop=1;jettySize=auto;html=1;" parent="1" source="-G9Bp_dfv1pCXyJ47o4s-47" target="-G9Bp_dfv1pCXyJ47o4s-49" edge="1">
          <mxGeometry relative="1" as="geometry" />
        </mxCell>
        <mxCell id="-G9Bp_dfv1pCXyJ47o4s-61" value="" style="edgeStyle=orthogonalEdgeStyle;rounded=0;orthogonalLoop=1;jettySize=auto;html=1;entryX=0.5;entryY=0;entryDx=0;entryDy=0;" parent="1" source="-G9Bp_dfv1pCXyJ47o4s-47" target="-G9Bp_dfv1pCXyJ47o4s-60" edge="1">
          <mxGeometry relative="1" as="geometry">
            <Array as="points">
              <mxPoint x="750" y="266" />
              <mxPoint x="750" y="580" />
              <mxPoint x="432" y="580" />
              <mxPoint x="432" y="610" />
            </Array>
          </mxGeometry>
        </mxCell>
        <mxCell id="-G9Bp_dfv1pCXyJ47o4s-47" value="source.get(ch), i = 0; !source.eof(); source.get(ch), i++" style="shape=hexagon;perimeter=hexagonPerimeter2;whiteSpace=wrap;html=1;fixedSize=1;" parent="1" vertex="1">
          <mxGeometry x="283" y="250" width="298" height="32.5" as="geometry" />
        </mxCell>
        <mxCell id="-G9Bp_dfv1pCXyJ47o4s-52" value="" style="edgeStyle=orthogonalEdgeStyle;rounded=0;orthogonalLoop=1;jettySize=auto;html=1;" parent="1" source="-G9Bp_dfv1pCXyJ47o4s-49" target="-G9Bp_dfv1pCXyJ47o4s-51" edge="1">
          <mxGeometry relative="1" as="geometry" />
        </mxCell>
        <mxCell id="-G9Bp_dfv1pCXyJ47o4s-49" value="x = static_cast&amp;lt;int&amp;gt;(ch)" style="whiteSpace=wrap;html=1;" parent="1" vertex="1">
          <mxGeometry x="358" y="300" width="148" height="21.25" as="geometry" />
        </mxCell>
        <mxCell id="-G9Bp_dfv1pCXyJ47o4s-54" value="" style="edgeStyle=orthogonalEdgeStyle;rounded=0;orthogonalLoop=1;jettySize=auto;html=1;exitX=0;exitY=0.5;exitDx=0;exitDy=0;" parent="1" source="-G9Bp_dfv1pCXyJ47o4s-51" target="-G9Bp_dfv1pCXyJ47o4s-53" edge="1">
          <mxGeometry relative="1" as="geometry" />
        </mxCell>
        <mxCell id="-G9Bp_dfv1pCXyJ47o4s-56" value="" style="edgeStyle=orthogonalEdgeStyle;rounded=0;orthogonalLoop=1;jettySize=auto;html=1;exitX=1;exitY=0.5;exitDx=0;exitDy=0;" parent="1" source="-G9Bp_dfv1pCXyJ47o4s-51" target="-G9Bp_dfv1pCXyJ47o4s-55" edge="1">
          <mxGeometry relative="1" as="geometry" />
        </mxCell>
        <mxCell id="-G9Bp_dfv1pCXyJ47o4s-51" value="(x + ke[i % KeyLen]) % 256 == 26" style="rhombus;whiteSpace=wrap;html=1;" parent="1" vertex="1">
          <mxGeometry x="313" y="340" width="238" height="38.12" as="geometry" />
        </mxCell>
        <mxCell id="-G9Bp_dfv1pCXyJ47o4s-57" style="edgeStyle=orthogonalEdgeStyle;rounded=0;orthogonalLoop=1;jettySize=auto;html=1;exitX=0.5;exitY=1;exitDx=0;exitDy=0;entryX=0;entryY=0.5;entryDx=0;entryDy=0;" parent="1" source="-G9Bp_dfv1pCXyJ47o4s-53" target="-G9Bp_dfv1pCXyJ47o4s-47" edge="1">
          <mxGeometry relative="1" as="geometry">
            <Array as="points">
              <mxPoint x="255" y="550" />
              <mxPoint x="430" y="550" />
              <mxPoint x="430" y="570" />
              <mxPoint x="120" y="570" />
              <mxPoint x="120" y="266" />
            </Array>
          </mxGeometry>
        </mxCell>
        <mxCell id="-G9Bp_dfv1pCXyJ47o4s-53" value="&lt;div&gt;Exceptions[i] = ch&lt;/div&gt;&lt;div&gt;ExceptionsIndex[y] = i&lt;/div&gt;&lt;div&gt;y++&lt;/div&gt;&lt;div&gt;encoded &amp;lt;&amp;lt; ch&lt;/div&gt;&lt;div&gt;stat[(256 + x) % 256][x] ++&lt;/div&gt;" style="whiteSpace=wrap;html=1;" parent="1" vertex="1">
          <mxGeometry x="180" y="430" width="150" height="90" as="geometry" />
        </mxCell>
        <mxCell id="-G9Bp_dfv1pCXyJ47o4s-55" value="&lt;div&gt;encoded &amp;lt;&amp;lt; static_cast&amp;lt;char&amp;gt;((x + ke[i % KeyLen]) % 256)&lt;/div&gt;&lt;div&gt;stat[(256 + x) % 256][(x + ke[i % KeyLen]) % 256]++&lt;/div&gt;" style="whiteSpace=wrap;html=1;" parent="1" vertex="1">
          <mxGeometry x="465" y="466" width="283" height="60" as="geometry" />
        </mxCell>
        <mxCell id="-G9Bp_dfv1pCXyJ47o4s-59" value="" style="endArrow=none;html=1;rounded=0;entryX=0.5;entryY=1;entryDx=0;entryDy=0;" parent="1" target="-G9Bp_dfv1pCXyJ47o4s-55" edge="1">
          <mxGeometry width="50" height="50" relative="1" as="geometry">
            <mxPoint x="430" y="550" as="sourcePoint" />
            <mxPoint x="450" y="190" as="targetPoint" />
            <Array as="points">
              <mxPoint x="606" y="550" />
            </Array>
          </mxGeometry>
        </mxCell>
        <mxCell id="-G9Bp_dfv1pCXyJ47o4s-63" value="" style="edgeStyle=orthogonalEdgeStyle;rounded=0;orthogonalLoop=1;jettySize=auto;html=1;" parent="1" source="-G9Bp_dfv1pCXyJ47o4s-60" target="-G9Bp_dfv1pCXyJ47o4s-62" edge="1">
          <mxGeometry relative="1" as="geometry" />
        </mxCell>
        <mxCell id="-G9Bp_dfv1pCXyJ47o4s-60" value="&lt;div&gt;source.close()&lt;/div&gt;&lt;div&gt;encoded.close()&lt;/div&gt;" style="whiteSpace=wrap;html=1;" parent="1" vertex="1">
          <mxGeometry x="383" y="620" width="98" height="40" as="geometry" />
        </mxCell>
        <mxCell id="-G9Bp_dfv1pCXyJ47o4s-62" value="Конец" style="ellipse;whiteSpace=wrap;html=1;" parent="1" vertex="1">
          <mxGeometry x="372" y="690" width="120" height="80" as="geometry" />
        </mxCell>
        <mxCell id="-G9Bp_dfv1pCXyJ47o4s-65" value="Нет" style="text;html=1;strokeColor=none;fillColor=none;align=center;verticalAlign=middle;whiteSpace=wrap;rounded=0;" parent="1" vertex="1">
          <mxGeometry x="315" y="180" width="60" height="30" as="geometry" />
        </mxCell>
        <mxCell id="-G9Bp_dfv1pCXyJ47o4s-66" value="Нет" style="text;html=1;strokeColor=none;fillColor=none;align=center;verticalAlign=middle;whiteSpace=wrap;rounded=0;" parent="1" vertex="1">
          <mxGeometry x="540" y="330" width="60" height="30" as="geometry" />
        </mxCell>
        <mxCell id="-G9Bp_dfv1pCXyJ47o4s-67" value="Да" style="text;html=1;strokeColor=none;fillColor=none;align=center;verticalAlign=middle;whiteSpace=wrap;rounded=0;" parent="1" vertex="1">
          <mxGeometry x="491" y="180" width="60" height="30" as="geometry" />
        </mxCell>
        <mxCell id="-G9Bp_dfv1pCXyJ47o4s-68" value="Да" style="text;html=1;strokeColor=none;fillColor=none;align=center;verticalAlign=middle;whiteSpace=wrap;rounded=0;" parent="1" vertex="1">
          <mxGeometry x="250" y="330" width="60" height="30" as="geometry" />
        </mxCell>
        <mxCell id="-G9Bp_dfv1pCXyJ47o4s-71" value="" style="edgeStyle=orthogonalEdgeStyle;rounded=0;orthogonalLoop=1;jettySize=auto;html=1;" parent="1" source="-G9Bp_dfv1pCXyJ47o4s-69" target="-G9Bp_dfv1pCXyJ47o4s-70" edge="1">
          <mxGeometry relative="1" as="geometry" />
        </mxCell>
        <mxCell id="-G9Bp_dfv1pCXyJ47o4s-69" value="Начало(Decoding)" style="ellipse;whiteSpace=wrap;html=1;" parent="1" vertex="1">
          <mxGeometry x="380" y="930" width="120" height="50" as="geometry" />
        </mxCell>
        <mxCell id="-G9Bp_dfv1pCXyJ47o4s-73" value="" style="edgeStyle=orthogonalEdgeStyle;rounded=0;orthogonalLoop=1;jettySize=auto;html=1;" parent="1" source="-G9Bp_dfv1pCXyJ47o4s-70" target="-G9Bp_dfv1pCXyJ47o4s-72" edge="1">
          <mxGeometry relative="1" as="geometry" />
        </mxCell>
        <mxCell id="-G9Bp_dfv1pCXyJ47o4s-70" value="&lt;div&gt;encoded(&quot;encoded.txt&quot;);&lt;/div&gt;&lt;div&gt;&amp;nbsp;decoded(&quot;decoded.txt&quot;);&lt;span style=&quot;&quot;&gt;&lt;/span&gt;&lt;/div&gt;" style="whiteSpace=wrap;html=1;" parent="1" vertex="1">
          <mxGeometry x="365" y="1010" width="150" height="35" as="geometry" />
        </mxCell>
        <mxCell id="-G9Bp_dfv1pCXyJ47o4s-74" style="edgeStyle=orthogonalEdgeStyle;rounded=0;orthogonalLoop=1;jettySize=auto;html=1;exitX=0;exitY=0.5;exitDx=0;exitDy=0;" parent="1" source="-G9Bp_dfv1pCXyJ47o4s-72" target="-G9Bp_dfv1pCXyJ47o4s-76" edge="1">
          <mxGeometry relative="1" as="geometry">
            <mxPoint x="440" y="1170" as="targetPoint" />
            <Array as="points">
              <mxPoint x="348" y="1095" />
              <mxPoint x="348" y="1130" />
              <mxPoint x="440" y="1130" />
            </Array>
          </mxGeometry>
        </mxCell>
        <mxCell id="-G9Bp_dfv1pCXyJ47o4s-75" style="edgeStyle=orthogonalEdgeStyle;rounded=0;orthogonalLoop=1;jettySize=auto;html=1;exitX=1;exitY=0.5;exitDx=0;exitDy=0;entryX=0.5;entryY=0;entryDx=0;entryDy=0;" parent="1" source="-G9Bp_dfv1pCXyJ47o4s-72" target="-G9Bp_dfv1pCXyJ47o4s-91" edge="1">
          <mxGeometry relative="1" as="geometry">
            <mxPoint x="760" y="1680.8333333333333" as="targetPoint" />
            <Array as="points">
              <mxPoint x="770" y="1095" />
              <mxPoint x="770" y="1610" />
              <mxPoint x="443" y="1610" />
            </Array>
          </mxGeometry>
        </mxCell>
        <mxCell id="-G9Bp_dfv1pCXyJ47o4s-72" value="!decoded|| !encoded" style="rhombus;whiteSpace=wrap;html=1;" parent="1" vertex="1">
          <mxGeometry x="367.5" y="1070" width="145" height="50" as="geometry" />
        </mxCell>
        <mxCell id="-G9Bp_dfv1pCXyJ47o4s-78" value="" style="edgeStyle=orthogonalEdgeStyle;rounded=0;orthogonalLoop=1;jettySize=auto;html=1;" parent="1" source="-G9Bp_dfv1pCXyJ47o4s-76" target="-G9Bp_dfv1pCXyJ47o4s-77" edge="1">
          <mxGeometry relative="1" as="geometry" />
        </mxCell>
        <mxCell id="-G9Bp_dfv1pCXyJ47o4s-76" value="i=0, y=0&lt;br&gt;&lt;div&gt;encoded.clear()&lt;/div&gt;&lt;div&gt;encoded.seekg(0)&lt;/div&gt;" style="rounded=0;whiteSpace=wrap;html=1;" parent="1" vertex="1">
          <mxGeometry x="385" y="1150" width="110" height="50" as="geometry" />
        </mxCell>
        <mxCell id="-G9Bp_dfv1pCXyJ47o4s-80" value="" style="edgeStyle=orthogonalEdgeStyle;rounded=0;orthogonalLoop=1;jettySize=auto;html=1;" parent="1" source="-G9Bp_dfv1pCXyJ47o4s-77" target="-G9Bp_dfv1pCXyJ47o4s-79" edge="1">
          <mxGeometry relative="1" as="geometry" />
        </mxCell>
        <mxCell id="-G9Bp_dfv1pCXyJ47o4s-90" value="" style="edgeStyle=orthogonalEdgeStyle;rounded=0;orthogonalLoop=1;jettySize=auto;html=1;" parent="1" source="-G9Bp_dfv1pCXyJ47o4s-77" target="-G9Bp_dfv1pCXyJ47o4s-89" edge="1">
          <mxGeometry relative="1" as="geometry">
            <Array as="points">
              <mxPoint x="730" y="1258" />
              <mxPoint x="730" y="1510" />
              <mxPoint x="442" y="1510" />
            </Array>
          </mxGeometry>
        </mxCell>
        <mxCell id="-G9Bp_dfv1pCXyJ47o4s-77" value="encoded.get(ch); !encoded.eof(); encoded.get(ch), i++" style="shape=hexagon;perimeter=hexagonPerimeter2;whiteSpace=wrap;html=1;fixedSize=1;rounded=0;" parent="1" vertex="1">
          <mxGeometry x="345" y="1230" width="190" height="55" as="geometry" />
        </mxCell>
        <mxCell id="-G9Bp_dfv1pCXyJ47o4s-82" value="" style="edgeStyle=orthogonalEdgeStyle;rounded=0;orthogonalLoop=1;jettySize=auto;html=1;exitX=0;exitY=0.5;exitDx=0;exitDy=0;" parent="1" source="-G9Bp_dfv1pCXyJ47o4s-79" target="-G9Bp_dfv1pCXyJ47o4s-81" edge="1">
          <mxGeometry relative="1" as="geometry" />
        </mxCell>
        <mxCell id="-G9Bp_dfv1pCXyJ47o4s-84" value="" style="edgeStyle=orthogonalEdgeStyle;rounded=0;orthogonalLoop=1;jettySize=auto;html=1;exitX=1;exitY=0.5;exitDx=0;exitDy=0;" parent="1" source="-G9Bp_dfv1pCXyJ47o4s-79" target="-G9Bp_dfv1pCXyJ47o4s-83" edge="1">
          <mxGeometry relative="1" as="geometry" />
        </mxCell>
        <mxCell id="-G9Bp_dfv1pCXyJ47o4s-79" value="i == ExceptionsIndex[y]" style="rhombus;whiteSpace=wrap;html=1;rounded=0;" parent="1" vertex="1">
          <mxGeometry x="345" y="1310" width="190" height="37.5" as="geometry" />
        </mxCell>
        <mxCell id="-G9Bp_dfv1pCXyJ47o4s-85" style="edgeStyle=orthogonalEdgeStyle;rounded=0;orthogonalLoop=1;jettySize=auto;html=1;exitX=0.5;exitY=1;exitDx=0;exitDy=0;entryX=0;entryY=0.5;entryDx=0;entryDy=0;" parent="1" source="-G9Bp_dfv1pCXyJ47o4s-81" target="-G9Bp_dfv1pCXyJ47o4s-77" edge="1">
          <mxGeometry relative="1" as="geometry">
            <Array as="points">
              <mxPoint x="290" y="1460" />
              <mxPoint x="440" y="1460" />
              <mxPoint x="440" y="1500" />
              <mxPoint x="200" y="1500" />
              <mxPoint x="200" y="1258" />
            </Array>
          </mxGeometry>
        </mxCell>
        <mxCell id="-G9Bp_dfv1pCXyJ47o4s-81" value="&lt;div&gt;decoded &amp;lt;&amp;lt; Exceptions[i];&lt;/div&gt;&lt;div&gt;y++;&lt;/div&gt;" style="whiteSpace=wrap;html=1;rounded=0;" parent="1" vertex="1">
          <mxGeometry x="215" y="1390" width="150" height="40" as="geometry" />
        </mxCell>
        <mxCell id="-G9Bp_dfv1pCXyJ47o4s-83" value="decoded &amp;lt;&amp;lt; static_cast&amp;lt;char&amp;gt;((static_cast&amp;lt;int&amp;gt;(ch) - ke[i % KeyLen]) % 256);" style="whiteSpace=wrap;html=1;rounded=0;" parent="1" vertex="1">
          <mxGeometry x="430" y="1370" width="280" height="60" as="geometry" />
        </mxCell>
        <mxCell id="-G9Bp_dfv1pCXyJ47o4s-87" value="" style="endArrow=none;html=1;rounded=0;entryX=0.5;entryY=1;entryDx=0;entryDy=0;" parent="1" target="-G9Bp_dfv1pCXyJ47o4s-83" edge="1">
          <mxGeometry width="50" height="50" relative="1" as="geometry">
            <mxPoint x="440" y="1460" as="sourcePoint" />
            <mxPoint x="480" y="1150" as="targetPoint" />
            <Array as="points">
              <mxPoint x="570" y="1460" />
            </Array>
          </mxGeometry>
        </mxCell>
        <mxCell id="-G9Bp_dfv1pCXyJ47o4s-92" value="" style="edgeStyle=orthogonalEdgeStyle;rounded=0;orthogonalLoop=1;jettySize=auto;html=1;" parent="1" source="-G9Bp_dfv1pCXyJ47o4s-89" target="-G9Bp_dfv1pCXyJ47o4s-91" edge="1">
          <mxGeometry relative="1" as="geometry" />
        </mxCell>
        <mxCell id="-G9Bp_dfv1pCXyJ47o4s-89" value="&lt;div&gt;decoded.close();&lt;/div&gt;&lt;div&gt;encoded.close();&lt;/div&gt;" style="whiteSpace=wrap;html=1;rounded=0;" parent="1" vertex="1">
          <mxGeometry x="391" y="1550" width="104" height="40" as="geometry" />
        </mxCell>
        <mxCell id="-G9Bp_dfv1pCXyJ47o4s-91" value="Конец" style="ellipse;whiteSpace=wrap;html=1;" parent="1" vertex="1">
          <mxGeometry x="394.5" y="1640" width="97" height="40" as="geometry" />
        </mxCell>
        <mxCell id="-G9Bp_dfv1pCXyJ47o4s-95" value="" style="edgeStyle=orthogonalEdgeStyle;rounded=0;orthogonalLoop=1;jettySize=auto;html=1;" parent="1" source="-G9Bp_dfv1pCXyJ47o4s-93" target="-G9Bp_dfv1pCXyJ47o4s-94" edge="1">
          <mxGeometry relative="1" as="geometry" />
        </mxCell>
        <mxCell id="-G9Bp_dfv1pCXyJ47o4s-93" value="Начало(Stats)" style="ellipse;whiteSpace=wrap;html=1;" parent="1" vertex="1">
          <mxGeometry x="388" y="1830" width="110" height="50" as="geometry" />
        </mxCell>
        <mxCell id="-G9Bp_dfv1pCXyJ47o4s-97" value="" style="edgeStyle=orthogonalEdgeStyle;rounded=0;orthogonalLoop=1;jettySize=auto;html=1;" parent="1" source="-G9Bp_dfv1pCXyJ47o4s-94" target="-G9Bp_dfv1pCXyJ47o4s-96" edge="1">
          <mxGeometry relative="1" as="geometry" />
        </mxCell>
        <mxCell id="-G9Bp_dfv1pCXyJ47o4s-94" value="st(&quot;stat.txt&quot;);" style="whiteSpace=wrap;html=1;" parent="1" vertex="1">
          <mxGeometry x="383" y="1910" width="120" height="25" as="geometry" />
        </mxCell>
        <mxCell id="-G9Bp_dfv1pCXyJ47o4s-99" value="" style="edgeStyle=orthogonalEdgeStyle;rounded=0;orthogonalLoop=1;jettySize=auto;html=1;exitX=0;exitY=0.5;exitDx=0;exitDy=0;" parent="1" source="-G9Bp_dfv1pCXyJ47o4s-96" target="-G9Bp_dfv1pCXyJ47o4s-98" edge="1">
          <mxGeometry relative="1" as="geometry">
            <Array as="points">
              <mxPoint x="395" y="1966" />
              <mxPoint x="395" y="2000" />
              <mxPoint x="445" y="2000" />
            </Array>
          </mxGeometry>
        </mxCell>
        <mxCell id="-G9Bp_dfv1pCXyJ47o4s-144" style="edgeStyle=orthogonalEdgeStyle;rounded=0;orthogonalLoop=1;jettySize=auto;html=1;exitX=1;exitY=0.5;exitDx=0;exitDy=0;entryX=0.5;entryY=0;entryDx=0;entryDy=0;" parent="1" source="-G9Bp_dfv1pCXyJ47o4s-96" target="-G9Bp_dfv1pCXyJ47o4s-142" edge="1">
          <mxGeometry relative="1" as="geometry">
            <Array as="points">
              <mxPoint x="583" y="1966" />
              <mxPoint x="583" y="2864" />
              <mxPoint x="443" y="2864" />
            </Array>
          </mxGeometry>
        </mxCell>
        <mxCell id="-G9Bp_dfv1pCXyJ47o4s-96" value="!st" style="rhombus;whiteSpace=wrap;html=1;" parent="1" vertex="1">
          <mxGeometry x="414.5" y="1950" width="57" height="32.5" as="geometry" />
        </mxCell>
        <mxCell id="-G9Bp_dfv1pCXyJ47o4s-102" value="" style="edgeStyle=orthogonalEdgeStyle;rounded=0;orthogonalLoop=1;jettySize=auto;html=1;" parent="1" source="-G9Bp_dfv1pCXyJ47o4s-98" target="-G9Bp_dfv1pCXyJ47o4s-101" edge="1">
          <mxGeometry relative="1" as="geometry" />
        </mxCell>
        <mxCell id="-G9Bp_dfv1pCXyJ47o4s-98" value="st &amp;lt;&amp;lt; setw(2) &amp;lt;&amp;lt; 0 &amp;lt;&amp;lt; setw(4)" style="whiteSpace=wrap;html=1;" parent="1" vertex="1">
          <mxGeometry x="362.25" y="2020" width="161.5" height="30" as="geometry" />
        </mxCell>
        <mxCell id="-G9Bp_dfv1pCXyJ47o4s-104" value="" style="edgeStyle=orthogonalEdgeStyle;rounded=0;orthogonalLoop=1;jettySize=auto;html=1;" parent="1" source="-G9Bp_dfv1pCXyJ47o4s-101" target="-G9Bp_dfv1pCXyJ47o4s-103" edge="1">
          <mxGeometry relative="1" as="geometry" />
        </mxCell>
        <mxCell id="-G9Bp_dfv1pCXyJ47o4s-106" style="edgeStyle=orthogonalEdgeStyle;rounded=0;orthogonalLoop=1;jettySize=auto;html=1;entryX=0.5;entryY=0;entryDx=0;entryDy=0;" parent="1" source="-G9Bp_dfv1pCXyJ47o4s-101" target="-G9Bp_dfv1pCXyJ47o4s-107" edge="1">
          <mxGeometry relative="1" as="geometry">
            <mxPoint x="450" y="2200" as="targetPoint" />
            <Array as="points">
              <mxPoint x="550" y="2090" />
              <mxPoint x="550" y="2155" />
              <mxPoint x="443" y="2155" />
            </Array>
          </mxGeometry>
        </mxCell>
        <mxCell id="-G9Bp_dfv1pCXyJ47o4s-101" value="n = 0; n &amp;lt; 256; n++" style="shape=hexagon;perimeter=hexagonPerimeter2;whiteSpace=wrap;html=1;fixedSize=1;" parent="1" vertex="1">
          <mxGeometry x="369.5" y="2080" width="147" height="20" as="geometry" />
        </mxCell>
        <mxCell id="-G9Bp_dfv1pCXyJ47o4s-105" style="edgeStyle=orthogonalEdgeStyle;rounded=0;orthogonalLoop=1;jettySize=auto;html=1;exitX=0.5;exitY=1;exitDx=0;exitDy=0;entryX=0;entryY=0.5;entryDx=0;entryDy=0;" parent="1" source="-G9Bp_dfv1pCXyJ47o4s-103" target="-G9Bp_dfv1pCXyJ47o4s-101" edge="1">
          <mxGeometry relative="1" as="geometry">
            <Array as="points">
              <mxPoint x="443" y="2150" />
              <mxPoint x="350" y="2150" />
              <mxPoint x="350" y="2090" />
            </Array>
          </mxGeometry>
        </mxCell>
        <mxCell id="-G9Bp_dfv1pCXyJ47o4s-103" value="st &amp;lt;&amp;lt; n &amp;lt;&amp;lt; &#39;setw(6)" style="whiteSpace=wrap;html=1;" parent="1" vertex="1">
          <mxGeometry x="383" y="2126" width="119" height="20" as="geometry" />
        </mxCell>
        <mxCell id="-G9Bp_dfv1pCXyJ47o4s-110" value="" style="edgeStyle=orthogonalEdgeStyle;rounded=0;orthogonalLoop=1;jettySize=auto;html=1;" parent="1" source="-G9Bp_dfv1pCXyJ47o4s-107" target="-G9Bp_dfv1pCXyJ47o4s-109" edge="1">
          <mxGeometry relative="1" as="geometry" />
        </mxCell>
        <mxCell id="-G9Bp_dfv1pCXyJ47o4s-107" value="st &amp;lt;&amp;lt; &quot;\n&quot;" style="rounded=0;whiteSpace=wrap;html=1;" parent="1" vertex="1">
          <mxGeometry x="408" y="2180" width="70" height="20" as="geometry" />
        </mxCell>
        <mxCell id="-G9Bp_dfv1pCXyJ47o4s-112" value="" style="edgeStyle=orthogonalEdgeStyle;rounded=0;orthogonalLoop=1;jettySize=auto;html=1;" parent="1" source="-G9Bp_dfv1pCXyJ47o4s-109" target="-G9Bp_dfv1pCXyJ47o4s-113" edge="1">
          <mxGeometry relative="1" as="geometry">
            <mxPoint x="443" y="2315" as="targetPoint" />
          </mxGeometry>
        </mxCell>
        <mxCell id="-G9Bp_dfv1pCXyJ47o4s-141" style="edgeStyle=orthogonalEdgeStyle;rounded=0;orthogonalLoop=1;jettySize=auto;html=1;exitX=1;exitY=0.5;exitDx=0;exitDy=0;entryX=0.5;entryY=0;entryDx=0;entryDy=0;" parent="1" source="-G9Bp_dfv1pCXyJ47o4s-109" target="-G9Bp_dfv1pCXyJ47o4s-142" edge="1">
          <mxGeometry relative="1" as="geometry">
            <mxPoint x="442" y="2961" as="targetPoint" />
            <Array as="points">
              <mxPoint x="564" y="2245" />
              <mxPoint x="564" y="2591" />
              <mxPoint x="565" y="2591" />
              <mxPoint x="565" y="2846" />
              <mxPoint x="442" y="2846" />
            </Array>
          </mxGeometry>
        </mxCell>
        <mxCell id="-G9Bp_dfv1pCXyJ47o4s-109" value="v = 0; v &amp;lt; 256; v++" style="shape=hexagon;perimeter=hexagonPerimeter2;whiteSpace=wrap;html=1;fixedSize=1;rounded=0;" parent="1" vertex="1">
          <mxGeometry x="374.5" y="2230" width="137" height="30" as="geometry" />
        </mxCell>
        <mxCell id="-G9Bp_dfv1pCXyJ47o4s-115" value="" style="edgeStyle=orthogonalEdgeStyle;rounded=0;orthogonalLoop=1;jettySize=auto;html=1;" parent="1" source="-G9Bp_dfv1pCXyJ47o4s-113" target="-G9Bp_dfv1pCXyJ47o4s-114" edge="1">
          <mxGeometry relative="1" as="geometry" />
        </mxCell>
        <mxCell id="-G9Bp_dfv1pCXyJ47o4s-113" value="exis=false" style="rounded=0;whiteSpace=wrap;html=1;" parent="1" vertex="1">
          <mxGeometry x="409.5" y="2285" width="67" height="25" as="geometry" />
        </mxCell>
        <mxCell id="-G9Bp_dfv1pCXyJ47o4s-117" value="" style="edgeStyle=orthogonalEdgeStyle;rounded=0;orthogonalLoop=1;jettySize=auto;html=1;" parent="1" source="-G9Bp_dfv1pCXyJ47o4s-114" target="-G9Bp_dfv1pCXyJ47o4s-116" edge="1">
          <mxGeometry relative="1" as="geometry" />
        </mxCell>
        <mxCell id="-G9Bp_dfv1pCXyJ47o4s-122" style="edgeStyle=orthogonalEdgeStyle;rounded=0;orthogonalLoop=1;jettySize=auto;html=1;exitX=1;exitY=0.5;exitDx=0;exitDy=0;entryX=0.5;entryY=0;entryDx=0;entryDy=0;" parent="1" source="-G9Bp_dfv1pCXyJ47o4s-114" target="-G9Bp_dfv1pCXyJ47o4s-124" edge="1">
          <mxGeometry relative="1" as="geometry">
            <mxPoint x="440" y="2600" as="targetPoint" />
            <Array as="points">
              <mxPoint x="530" y="2352" />
              <mxPoint x="530" y="2520" />
              <mxPoint x="443" y="2520" />
            </Array>
          </mxGeometry>
        </mxCell>
        <mxCell id="-G9Bp_dfv1pCXyJ47o4s-114" value="b = 0; b &amp;lt; 256; b++" style="shape=hexagon;perimeter=hexagonPerimeter2;whiteSpace=wrap;html=1;fixedSize=1;rounded=0;" parent="1" vertex="1">
          <mxGeometry x="374.5" y="2338" width="137" height="27.5" as="geometry" />
        </mxCell>
        <mxCell id="-G9Bp_dfv1pCXyJ47o4s-119" value="" style="edgeStyle=orthogonalEdgeStyle;rounded=0;orthogonalLoop=1;jettySize=auto;html=1;exitX=0;exitY=0.5;exitDx=0;exitDy=0;" parent="1" source="-G9Bp_dfv1pCXyJ47o4s-116" target="-G9Bp_dfv1pCXyJ47o4s-118" edge="1">
          <mxGeometry relative="1" as="geometry">
            <Array as="points">
              <mxPoint x="380" y="2405" />
              <mxPoint x="380" y="2440" />
              <mxPoint x="443" y="2440" />
            </Array>
          </mxGeometry>
        </mxCell>
        <mxCell id="-G9Bp_dfv1pCXyJ47o4s-121" style="edgeStyle=orthogonalEdgeStyle;rounded=0;orthogonalLoop=1;jettySize=auto;html=1;exitX=1;exitY=0.5;exitDx=0;exitDy=0;" parent="1" source="-G9Bp_dfv1pCXyJ47o4s-116" edge="1">
          <mxGeometry relative="1" as="geometry">
            <mxPoint x="443" y="2500" as="targetPoint" />
            <Array as="points">
              <mxPoint x="510" y="2405" />
              <mxPoint x="510" y="2500" />
            </Array>
          </mxGeometry>
        </mxCell>
        <mxCell id="-G9Bp_dfv1pCXyJ47o4s-116" value="stat[v][b] != 0" style="rhombus;whiteSpace=wrap;html=1;rounded=0;" parent="1" vertex="1">
          <mxGeometry x="399.5" y="2380" width="87" height="50.75" as="geometry" />
        </mxCell>
        <mxCell id="-G9Bp_dfv1pCXyJ47o4s-120" style="edgeStyle=orthogonalEdgeStyle;rounded=0;orthogonalLoop=1;jettySize=auto;html=1;exitX=0.5;exitY=1;exitDx=0;exitDy=0;entryX=0;entryY=0.5;entryDx=0;entryDy=0;" parent="1" source="-G9Bp_dfv1pCXyJ47o4s-118" target="-G9Bp_dfv1pCXyJ47o4s-114" edge="1">
          <mxGeometry relative="1" as="geometry">
            <Array as="points">
              <mxPoint x="443" y="2510" />
              <mxPoint x="355" y="2510" />
              <mxPoint x="355" y="2352" />
            </Array>
          </mxGeometry>
        </mxCell>
        <mxCell id="-G9Bp_dfv1pCXyJ47o4s-118" value="exis=true" style="whiteSpace=wrap;html=1;rounded=0;" parent="1" vertex="1">
          <mxGeometry x="407.5" y="2460" width="70" height="30.01" as="geometry" />
        </mxCell>
        <mxCell id="-G9Bp_dfv1pCXyJ47o4s-126" style="edgeStyle=orthogonalEdgeStyle;rounded=0;orthogonalLoop=1;jettySize=auto;html=1;exitX=0;exitY=0.5;exitDx=0;exitDy=0;" parent="1" source="-G9Bp_dfv1pCXyJ47o4s-124" target="-G9Bp_dfv1pCXyJ47o4s-127" edge="1">
          <mxGeometry relative="1" as="geometry">
            <mxPoint x="440" y="2620" as="targetPoint" />
          </mxGeometry>
        </mxCell>
        <mxCell id="-G9Bp_dfv1pCXyJ47o4s-140" style="edgeStyle=orthogonalEdgeStyle;rounded=0;orthogonalLoop=1;jettySize=auto;html=1;exitX=1;exitY=0.5;exitDx=0;exitDy=0;" parent="1" source="-G9Bp_dfv1pCXyJ47o4s-124" edge="1">
          <mxGeometry relative="1" as="geometry">
            <mxPoint x="444" y="2830" as="targetPoint" />
            <Array as="points">
              <mxPoint x="553" y="2560" />
              <mxPoint x="553" y="2819" />
              <mxPoint x="444" y="2819" />
            </Array>
          </mxGeometry>
        </mxCell>
        <mxCell id="-G9Bp_dfv1pCXyJ47o4s-124" value="exis==true" style="rhombus;whiteSpace=wrap;html=1;" parent="1" vertex="1">
          <mxGeometry x="403" y="2540" width="80" height="40" as="geometry" />
        </mxCell>
        <mxCell id="-G9Bp_dfv1pCXyJ47o4s-129" value="" style="edgeStyle=orthogonalEdgeStyle;rounded=0;orthogonalLoop=1;jettySize=auto;html=1;" parent="1" source="-G9Bp_dfv1pCXyJ47o4s-127" target="-G9Bp_dfv1pCXyJ47o4s-128" edge="1">
          <mxGeometry relative="1" as="geometry" />
        </mxCell>
        <mxCell id="-G9Bp_dfv1pCXyJ47o4s-127" value="st &amp;lt;&amp;lt;setw(2)&amp;lt;&amp;lt; v &amp;lt;&amp;lt; setw(6)" style="rounded=0;whiteSpace=wrap;html=1;" parent="1" vertex="1">
          <mxGeometry x="394.5" y="2620" width="107.5" height="30" as="geometry" />
        </mxCell>
        <mxCell id="-G9Bp_dfv1pCXyJ47o4s-131" value="" style="edgeStyle=orthogonalEdgeStyle;rounded=0;orthogonalLoop=1;jettySize=auto;html=1;" parent="1" source="-G9Bp_dfv1pCXyJ47o4s-128" target="-G9Bp_dfv1pCXyJ47o4s-130" edge="1">
          <mxGeometry relative="1" as="geometry" />
        </mxCell>
        <mxCell id="-G9Bp_dfv1pCXyJ47o4s-138" value="" style="edgeStyle=orthogonalEdgeStyle;rounded=0;orthogonalLoop=1;jettySize=auto;html=1;entryX=0.5;entryY=0;entryDx=0;entryDy=0;" parent="1" source="-G9Bp_dfv1pCXyJ47o4s-128" target="-G9Bp_dfv1pCXyJ47o4s-137" edge="1">
          <mxGeometry relative="1" as="geometry">
            <Array as="points">
              <mxPoint x="526" y="2692" />
              <mxPoint x="526" y="2766" />
              <mxPoint x="443" y="2766" />
            </Array>
          </mxGeometry>
        </mxCell>
        <mxCell id="-G9Bp_dfv1pCXyJ47o4s-128" value="bg = 0; bg &amp;lt; 256; bg++" style="shape=hexagon;perimeter=hexagonPerimeter2;whiteSpace=wrap;html=1;fixedSize=1;rounded=0;" parent="1" vertex="1">
          <mxGeometry x="369.5" y="2680" width="147.5" height="25" as="geometry" />
        </mxCell>
        <mxCell id="-G9Bp_dfv1pCXyJ47o4s-132" style="edgeStyle=orthogonalEdgeStyle;rounded=0;orthogonalLoop=1;jettySize=auto;html=1;entryX=0;entryY=0.5;entryDx=0;entryDy=0;" parent="1" source="-G9Bp_dfv1pCXyJ47o4s-130" target="-G9Bp_dfv1pCXyJ47o4s-128" edge="1">
          <mxGeometry relative="1" as="geometry">
            <Array as="points">
              <mxPoint x="443" y="2760" />
              <mxPoint x="350" y="2760" />
              <mxPoint x="350" y="2693" />
            </Array>
          </mxGeometry>
        </mxCell>
        <mxCell id="-G9Bp_dfv1pCXyJ47o4s-130" value="st &amp;lt;&amp;lt; stat[v][bg] &amp;lt;&amp;lt; setw(6)" style="whiteSpace=wrap;html=1;rounded=0;" parent="1" vertex="1">
          <mxGeometry x="369.88" y="2730" width="146.25" height="22.5" as="geometry" />
        </mxCell>
        <mxCell id="-G9Bp_dfv1pCXyJ47o4s-139" style="edgeStyle=orthogonalEdgeStyle;rounded=0;orthogonalLoop=1;jettySize=auto;html=1;exitX=0.5;exitY=1;exitDx=0;exitDy=0;entryX=0;entryY=0.5;entryDx=0;entryDy=0;" parent="1" source="-G9Bp_dfv1pCXyJ47o4s-137" target="-G9Bp_dfv1pCXyJ47o4s-109" edge="1">
          <mxGeometry relative="1" as="geometry">
            <Array as="points">
              <mxPoint x="443" y="2830" />
              <mxPoint x="313" y="2830" />
              <mxPoint x="313" y="2245" />
            </Array>
          </mxGeometry>
        </mxCell>
        <mxCell id="-G9Bp_dfv1pCXyJ47o4s-137" value="st &amp;lt;&amp;lt; &quot;\n&quot;" style="whiteSpace=wrap;html=1;rounded=0;" parent="1" vertex="1">
          <mxGeometry x="415.25" y="2786" width="56.25" height="24.5" as="geometry" />
        </mxCell>
        <mxCell id="-G9Bp_dfv1pCXyJ47o4s-142" value="Конец" style="ellipse;whiteSpace=wrap;html=1;" parent="1" vertex="1">
          <mxGeometry x="413.5" y="2891" width="58" height="29" as="geometry" />
        </mxCell>
        <mxCell id="-G9Bp_dfv1pCXyJ47o4s-145" value="Нет" style="text;html=1;strokeColor=none;fillColor=none;align=center;verticalAlign=middle;whiteSpace=wrap;rounded=0;" parent="1" vertex="1">
          <mxGeometry x="372" y="1940" width="60" height="30" as="geometry" />
        </mxCell>
        <mxCell id="-G9Bp_dfv1pCXyJ47o4s-146" value="Нет" style="text;html=1;strokeColor=none;fillColor=none;align=center;verticalAlign=middle;whiteSpace=wrap;rounded=0;" parent="1" vertex="1">
          <mxGeometry x="470" y="2381" width="60" height="30" as="geometry" />
        </mxCell>
        <mxCell id="-G9Bp_dfv1pCXyJ47o4s-147" value="Нет" style="text;html=1;strokeColor=none;fillColor=none;align=center;verticalAlign=middle;whiteSpace=wrap;rounded=0;" parent="1" vertex="1">
          <mxGeometry x="468" y="2534" width="60" height="30" as="geometry" />
        </mxCell>
        <mxCell id="-G9Bp_dfv1pCXyJ47o4s-148" value="Да" style="text;html=1;strokeColor=none;fillColor=none;align=center;verticalAlign=middle;whiteSpace=wrap;rounded=0;" parent="1" vertex="1">
          <mxGeometry x="463" y="1939" width="60" height="30" as="geometry" />
        </mxCell>
        <mxCell id="-G9Bp_dfv1pCXyJ47o4s-149" value="Да" style="text;html=1;strokeColor=none;fillColor=none;align=center;verticalAlign=middle;whiteSpace=wrap;rounded=0;" parent="1" vertex="1">
          <mxGeometry x="358" y="2378" width="60" height="30" as="geometry" />
        </mxCell>
        <mxCell id="-G9Bp_dfv1pCXyJ47o4s-150" value="Да" style="text;html=1;strokeColor=none;fillColor=none;align=center;verticalAlign=middle;whiteSpace=wrap;rounded=0;" parent="1" vertex="1">
          <mxGeometry x="361" y="2537" width="60" height="30" as="geometry" />
        </mxCell>
        <mxCell id="Q6ZilzTecbA1hNGgmyX3-1" value="Да" style="text;html=1;strokeColor=none;fillColor=none;align=center;verticalAlign=middle;whiteSpace=wrap;rounded=0;" parent="1" vertex="1">
          <mxGeometry x="284" y="1304" width="60" height="30" as="geometry" />
        </mxCell>
        <mxCell id="Q6ZilzTecbA1hNGgmyX3-2" value="Нет" style="text;html=1;strokeColor=none;fillColor=none;align=center;verticalAlign=middle;whiteSpace=wrap;rounded=0;" parent="1" vertex="1">
          <mxGeometry x="521" y="1302" width="60" height="30" as="geometry" />
        </mxCell>
        <mxCell id="Q6ZilzTecbA1hNGgmyX3-3" value="Нет" style="text;html=1;strokeColor=none;fillColor=none;align=center;verticalAlign=middle;whiteSpace=wrap;rounded=0;" parent="1" vertex="1">
          <mxGeometry x="324" y="1062" width="60" height="30" as="geometry" />
        </mxCell>
        <mxCell id="Q6ZilzTecbA1hNGgmyX3-4" value="Да" style="text;html=1;strokeColor=none;fillColor=none;align=center;verticalAlign=middle;whiteSpace=wrap;rounded=0;" parent="1" vertex="1">
          <mxGeometry x="510" y="1065" width="60" height="30" as="geometry" />
        </mxCell>
      </root>
    </mxGraphModel>
  </diagram>
</mxfile>
